<mxfile host="app.diagrams.net" modified="2023-09-29T05:43:16.552Z" agent="Mozilla/5.0 (Windows NT 10.0; Win64; x64) AppleWebKit/537.36 (KHTML, like Gecko) Chrome/117.0.0.0 Safari/537.36" etag="zwBMwHGvCB05_tQOEKdP" version="22.0.0" type="github" pages="3">
  <diagram name="Page-1" id="CbZbpClS2DaQ5tMls4xe">
    <mxGraphModel dx="2474" dy="1588" grid="0" gridSize="10" guides="1" tooltips="1" connect="1" arrows="1" fold="1" page="0" pageScale="1" pageWidth="850" pageHeight="1100" math="0" shadow="0">
      <root>
        <mxCell id="0" />
        <mxCell id="1" parent="0" />
        <mxCell id="XWaHndsWBwwrYB-onGRr-1" value="" style="whiteSpace=wrap;html=1;fontSize=16;" parent="1" vertex="1">
          <mxGeometry x="-305" y="-163" width="120" height="60" as="geometry" />
        </mxCell>
        <mxCell id="XWaHndsWBwwrYB-onGRr-2" value="Text" style="text;strokeColor=none;align=center;fillColor=none;html=1;verticalAlign=middle;whiteSpace=wrap;rounded=0;fontSize=16;" parent="1" vertex="1">
          <mxGeometry x="-268" y="-176" width="54" height="55" as="geometry" />
        </mxCell>
      </root>
    </mxGraphModel>
  </diagram>
  <diagram name="Page-1" id="_1cjDSlanhLZMGjmzF7L">
    <mxGraphModel dx="1710" dy="1238" grid="1" gridSize="10" guides="1" tooltips="1" connect="1" arrows="1" fold="1" page="1" pageScale="1" pageWidth="1100" pageHeight="850" background="#ffffff" math="0" shadow="0">
      <root>
        <mxCell id="0" />
        <mxCell id="1" parent="0" />
        <mxCell id="KznVBhIapNY1DNLkPnlD-4" value="" style="strokeWidth=1;shadow=1;dashed=0;align=center;html=1;shape=mxgraph.mockup.containers.browserWindow;rSize=0;strokeColor=#36393d;strokeColor2=#008cff;strokeColor3=#c4c4c4;mainText=,;recursiveResize=0;fillColor=#eeeeee;gradientColor=default;" parent="1" vertex="1">
          <mxGeometry x="30" y="70" width="1040" height="750" as="geometry" />
        </mxCell>
        <mxCell id="KznVBhIapNY1DNLkPnlD-5" value="GamerMingle" style="strokeWidth=1;shadow=0;dashed=0;align=center;html=1;shape=mxgraph.mockup.containers.anchor;fontSize=17;fontColor=#666666;align=left;whiteSpace=wrap;" parent="KznVBhIapNY1DNLkPnlD-4" vertex="1">
          <mxGeometry x="60" y="12" width="110" height="26" as="geometry" />
        </mxCell>
        <mxCell id="KznVBhIapNY1DNLkPnlD-6" value="https://www.gamermingle.io" style="strokeWidth=1;shadow=0;dashed=0;align=center;html=1;shape=mxgraph.mockup.containers.anchor;rSize=0;fontSize=17;fontColor=#666666;align=left;" parent="KznVBhIapNY1DNLkPnlD-4" vertex="1">
          <mxGeometry x="130" y="60" width="250" height="26" as="geometry" />
        </mxCell>
        <mxCell id="KznVBhIapNY1DNLkPnlD-29" value="" style="rounded=0;whiteSpace=wrap;html=1;fillColor=#a3a3a3;strokeColor=#9673a6;" parent="KznVBhIapNY1DNLkPnlD-4" vertex="1">
          <mxGeometry y="110" width="1040" height="60" as="geometry" />
        </mxCell>
        <mxCell id="KznVBhIapNY1DNLkPnlD-30" value="" style="rounded=0;whiteSpace=wrap;html=1;fillColor=#a3a3a3;strokeColor=#9673a6;" parent="KznVBhIapNY1DNLkPnlD-4" vertex="1">
          <mxGeometry y="650" width="1040" height="100" as="geometry" />
        </mxCell>
        <mxCell id="KznVBhIapNY1DNLkPnlD-32" value="" style="rounded=1;whiteSpace=wrap;html=1;fillColor=#f5f5f5;fontColor=#333333;strokeColor=#666666;" parent="KznVBhIapNY1DNLkPnlD-4" vertex="1">
          <mxGeometry x="324.87" y="270" width="381.25" height="290" as="geometry" />
        </mxCell>
        <mxCell id="KznVBhIapNY1DNLkPnlD-31" value="&amp;lt; Sign Up Button &amp;gt;" style="strokeWidth=1;shadow=0;dashed=0;align=center;html=1;shape=mxgraph.mockup.buttons.button;strokeColor=#666666;fontColor=#ffffff;mainText=;buttonStyle=round;fontSize=17;fontStyle=1;fillColor=#008cff;whiteSpace=wrap;" parent="KznVBhIapNY1DNLkPnlD-4" vertex="1">
          <mxGeometry x="418" y="470" width="195" height="50" as="geometry" />
        </mxCell>
        <mxCell id="KznVBhIapNY1DNLkPnlD-33" value="&lt;font color=&quot;#000000&quot;&gt;or login&lt;/font&gt;" style="text;html=1;strokeColor=none;fillColor=none;align=center;verticalAlign=middle;whiteSpace=wrap;rounded=0;" parent="KznVBhIapNY1DNLkPnlD-4" vertex="1">
          <mxGeometry x="490" y="520" width="60" height="30" as="geometry" />
        </mxCell>
        <mxCell id="KznVBhIapNY1DNLkPnlD-34" value="&lt;font color=&quot;#030303&quot;&gt;&amp;lt; Splash Background &amp;gt;&lt;/font&gt;" style="text;html=1;strokeColor=none;fillColor=none;align=center;verticalAlign=middle;whiteSpace=wrap;rounded=0;" parent="KznVBhIapNY1DNLkPnlD-4" vertex="1">
          <mxGeometry x="15" y="600" width="200" height="30" as="geometry" />
        </mxCell>
        <mxCell id="KznVBhIapNY1DNLkPnlD-35" value="&lt;font style=&quot;font-size: 27px;&quot; color=&quot;#0f0f0f&quot;&gt;&amp;lt; Logo + Title &amp;gt;&lt;/font&gt;" style="text;html=1;strokeColor=none;fillColor=none;align=center;verticalAlign=middle;whiteSpace=wrap;rounded=0;" parent="KznVBhIapNY1DNLkPnlD-4" vertex="1">
          <mxGeometry x="-12.5" y="125" width="255" height="30" as="geometry" />
        </mxCell>
        <mxCell id="KznVBhIapNY1DNLkPnlD-36" value="&lt;font style=&quot;font-size: 15px;&quot; color=&quot;#000000&quot;&gt;&amp;lt; Nav Bar &amp;gt; &lt;br&gt;Home&lt;span style=&quot;white-space: pre;&quot;&gt;&#x9;&lt;/span&gt;Safety&lt;span style=&quot;white-space: pre;&quot;&gt;&#x9;&lt;/span&gt;Learn&lt;span style=&quot;white-space: pre;&quot;&gt;&#x9;&lt;/span&gt;Contact&lt;span style=&quot;white-space: pre;&quot;&gt;&#x9;&lt;/span&gt;&lt;/font&gt;" style="text;html=1;strokeColor=none;fillColor=none;align=center;verticalAlign=middle;whiteSpace=wrap;rounded=0;" parent="KznVBhIapNY1DNLkPnlD-4" vertex="1">
          <mxGeometry x="740" y="125" width="252.5" height="30" as="geometry" />
        </mxCell>
        <mxCell id="KznVBhIapNY1DNLkPnlD-48" value="&lt;font color=&quot;#000000&quot;&gt;footer&lt;br&gt;&lt;/font&gt;" style="text;html=1;strokeColor=none;fillColor=none;align=center;verticalAlign=middle;whiteSpace=wrap;rounded=0;" parent="KznVBhIapNY1DNLkPnlD-4" vertex="1">
          <mxGeometry x="449.24" y="680" width="132.5" height="30" as="geometry" />
        </mxCell>
        <mxCell id="KznVBhIapNY1DNLkPnlD-49" value="" style="rounded=0;whiteSpace=wrap;html=1;" parent="1" vertex="1">
          <mxGeometry x="355" y="10" width="390" height="60" as="geometry" />
        </mxCell>
        <mxCell id="KznVBhIapNY1DNLkPnlD-50" value="Home/Splash Page" style="text;html=1;strokeColor=none;fillColor=none;align=center;verticalAlign=middle;whiteSpace=wrap;rounded=0;fontSize=20;" parent="1" vertex="1">
          <mxGeometry x="433" y="25" width="235" height="30" as="geometry" />
        </mxCell>
      </root>
    </mxGraphModel>
  </diagram>
  <diagram name="Page-2" id="HjYebryZg0R2qcD2yPK_">
    <mxGraphModel dx="1578" dy="1143" grid="1" gridSize="10" guides="1" tooltips="1" connect="1" arrows="1" fold="1" page="1" pageScale="1" pageWidth="1100" pageHeight="850" background="#ffffff" math="0" shadow="0">
      <root>
        <mxCell id="0" />
        <mxCell id="1" parent="0" />
        <mxCell id="Nu1rPF89SVlZ3sxRPgpB-13" value="" style="strokeWidth=1;shadow=1;dashed=0;align=center;html=1;shape=mxgraph.mockup.containers.browserWindow;rSize=0;strokeColor=#36393d;strokeColor2=#008cff;strokeColor3=#c4c4c4;mainText=,;recursiveResize=0;fillColor=#eeeeee;gradientColor=default;" vertex="1" parent="1">
          <mxGeometry x="40" y="80" width="1040" height="750" as="geometry" />
        </mxCell>
        <mxCell id="Nu1rPF89SVlZ3sxRPgpB-14" value="GamerMingle" style="strokeWidth=1;shadow=0;dashed=0;align=center;html=1;shape=mxgraph.mockup.containers.anchor;fontSize=17;fontColor=#666666;align=left;whiteSpace=wrap;" vertex="1" parent="Nu1rPF89SVlZ3sxRPgpB-13">
          <mxGeometry x="60" y="12" width="110" height="26" as="geometry" />
        </mxCell>
        <mxCell id="Nu1rPF89SVlZ3sxRPgpB-15" value="https://www.gamermingle.io" style="strokeWidth=1;shadow=0;dashed=0;align=center;html=1;shape=mxgraph.mockup.containers.anchor;rSize=0;fontSize=17;fontColor=#666666;align=left;" vertex="1" parent="Nu1rPF89SVlZ3sxRPgpB-13">
          <mxGeometry x="130" y="60" width="250" height="26" as="geometry" />
        </mxCell>
        <mxCell id="Nu1rPF89SVlZ3sxRPgpB-16" value="" style="rounded=0;whiteSpace=wrap;html=1;fillColor=#a3a3a3;strokeColor=#9673a6;" vertex="1" parent="Nu1rPF89SVlZ3sxRPgpB-13">
          <mxGeometry y="110" width="1040" height="60" as="geometry" />
        </mxCell>
        <mxCell id="Nu1rPF89SVlZ3sxRPgpB-17" value="" style="rounded=0;whiteSpace=wrap;html=1;fillColor=#a3a3a3;strokeColor=#9673a6;" vertex="1" parent="Nu1rPF89SVlZ3sxRPgpB-13">
          <mxGeometry y="650" width="1040" height="100" as="geometry" />
        </mxCell>
        <mxCell id="Nu1rPF89SVlZ3sxRPgpB-22" value="&lt;font style=&quot;font-size: 27px;&quot; color=&quot;#0f0f0f&quot;&gt;&amp;lt; Logo + Title &amp;gt;&lt;/font&gt;" style="text;html=1;strokeColor=none;fillColor=none;align=center;verticalAlign=middle;whiteSpace=wrap;rounded=0;" vertex="1" parent="Nu1rPF89SVlZ3sxRPgpB-13">
          <mxGeometry x="-12.5" y="125" width="255" height="30" as="geometry" />
        </mxCell>
        <mxCell id="Nu1rPF89SVlZ3sxRPgpB-23" value="&lt;font style=&quot;font-size: 15px;&quot; color=&quot;#000000&quot;&gt;&amp;lt; Nav Bar &amp;gt; &lt;br&gt;Home&lt;span style=&quot;white-space: pre;&quot;&gt;&#x9;&lt;/span&gt;Safety&lt;span style=&quot;white-space: pre;&quot;&gt;&#x9;&lt;/span&gt;Learn&lt;span style=&quot;white-space: pre;&quot;&gt;&#x9;&lt;/span&gt;Contact&lt;span style=&quot;white-space: pre;&quot;&gt;&#x9;&lt;/span&gt;&lt;/font&gt;" style="text;html=1;strokeColor=none;fillColor=none;align=center;verticalAlign=middle;whiteSpace=wrap;rounded=0;" vertex="1" parent="Nu1rPF89SVlZ3sxRPgpB-13">
          <mxGeometry x="740" y="125" width="252.5" height="30" as="geometry" />
        </mxCell>
        <mxCell id="Nu1rPF89SVlZ3sxRPgpB-24" value="&lt;font color=&quot;#000000&quot;&gt;footer&lt;br&gt;&lt;/font&gt;" style="text;html=1;strokeColor=none;fillColor=none;align=center;verticalAlign=middle;whiteSpace=wrap;rounded=0;" vertex="1" parent="Nu1rPF89SVlZ3sxRPgpB-13">
          <mxGeometry x="449.24" y="680" width="132.5" height="30" as="geometry" />
        </mxCell>
      </root>
    </mxGraphModel>
  </diagram>
</mxfile>
